<svg id="svg" version="1.1" xmlns="http://www.w3.org/2000/svg" xmlns:xlink="http://www.w3.org/1999/xlink" width="400" height="400" viewBox="0, 0, 400,400"><g id="svgg"><path id="path0" d="M243.011 177.189 L 239.840 180.378 240.790 181.389 C 241.312 181.945,241.543 182.400,241.303 182.400 C 241.063 182.400,240.796 182.188,240.710 181.929 C 239.841 179.324,239.600 183.099,239.600 199.272 L 239.600 216.498 242.871 219.849 C 246.899 223.976,246.887 223.976,250.989 219.800 L 254.328 216.400 258.214 220.224 L 262.100 224.047 272.848 223.924 L 283.595 223.800 286.898 220.498 L 290.200 217.195 290.324 206.829 C 290.476 194.163,290.508 194.253,284.069 189.071 L 282.739 188.000 273.269 188.031 C 261.681 188.068,261.817 188.032,257.447 192.321 L 254.063 195.642 253.931 187.974 L 253.800 180.307 250.476 177.153 C 246.427 173.312,246.867 173.310,243.011 177.189 M204.191 177.609 L 201.000 180.818 200.880 197.987 C 200.741 217.941,200.543 216.822,204.984 221.200 L 207.622 223.800 217.311 223.927 C 229.044 224.080,228.922 224.110,232.800 220.202 L 235.800 217.180 235.800 206.290 C 235.800 193.901,236.131 195.167,231.843 191.170 L 229.087 188.600 221.843 188.400 L 214.600 188.200 214.395 184.504 L 214.189 180.808 211.004 177.604 C 207.177 173.754,208.024 173.753,204.191 177.609 M303.200 188.249 C 303.200 188.768,303.085 188.802,302.626 188.421 C 301.826 187.757,301.111 188.225,297.800 191.582 L 295.000 194.420 294.881 205.245 C 294.790 213.607,294.872 216.002,295.244 215.773 C 295.582 215.564,295.660 215.727,295.505 216.318 C 295.330 216.990,296.080 217.933,299.187 220.948 C 303.047 224.693,304.695 226.824,302.714 225.510 C 301.851 224.936,301.672 225.039,298.506 227.920 C 294.493 231.574,294.499 231.121,298.409 235.009 L 301.617 238.200 311.854 238.325 C 317.485 238.394,322.386 238.321,322.746 238.162 C 323.106 238.004,323.629 237.911,323.909 237.957 C 324.190 238.002,325.854 236.546,327.607 234.720 L 330.796 231.400 330.698 212.883 L 330.600 194.365 327.156 190.983 L 323.711 187.600 313.456 187.600 C 304.262 187.600,303.200 187.667,303.200 188.249 M73.972 188.270 C 72.018 188.592,66.101 195.028,66.770 196.103 C 67.281 196.924,67.272 196.953,66.664 196.451 C 66.048 195.942,66.000 196.667,65.994 206.451 L 65.988 217.000 69.294 220.100 C 73.341 223.894,73.129 223.894,76.909 220.091 L 80.000 216.982 80.000 209.691 L 80.000 202.400 84.000 202.400 L 88.000 202.400 88.000 209.595 L 88.000 216.791 91.010 219.772 C 95.190 223.910,95.073 223.905,98.849 220.152 L 102.000 217.019 102.000 206.163 L 102.000 195.308 98.744 192.065 C 96.953 190.281,95.313 188.930,95.099 189.062 C 94.885 189.194,94.557 189.054,94.370 188.751 C 94.038 188.213,76.785 187.806,73.972 188.270 M113.600 188.779 C 112.830 189.188,110.895 190.871,109.300 192.519 L 106.400 195.515 106.400 204.982 C 106.400 216.324,106.568 216.900,111.177 221.350 L 113.961 224.038 124.578 223.919 L 135.196 223.800 138.698 220.290 L 142.200 216.781 138.532 213.164 L 134.863 209.548 138.065 206.489 C 142.067 202.666,142.400 202.026,142.400 198.163 L 142.400 195.085 139.611 192.384 C 135.124 188.036,134.984 187.997,124.174 188.018 C 116.021 188.033,114.844 188.118,113.600 188.779 M152.224 188.420 C 150.604 188.904,145.200 194.326,145.200 195.466 C 145.200 195.954,145.019 196.465,144.797 196.602 C 144.533 196.765,144.482 200.053,144.650 206.125 C 144.950 217.036,145.025 217.297,148.984 221.200 L 151.622 223.800 161.881 223.920 C 173.822 224.059,173.221 224.206,177.229 220.172 L 180.200 217.181 180.324 206.822 C 180.476 194.164,180.507 194.252,174.069 189.071 L 172.739 188.000 163.069 188.034 C 157.751 188.053,152.871 188.227,152.224 188.420 M128.353 200.177 C 129.104 203.161,129.231 203.060,125.143 202.734 C 120.712 202.380,120.399 202.272,120.405 201.113 C 120.421 198.521,120.598 198.400,124.399 198.400 L 127.905 198.400 128.353 200.177 M316.715 205.950 L 316.829 210.101 315.915 209.856 C 315.412 209.721,313.605 209.608,311.900 209.605 L 308.800 209.600 308.800 205.586 L 308.800 201.571 312.700 201.686 L 316.600 201.800 316.715 205.950 M164.192 202.400 L 166.318 202.400 166.474 205.900 C 166.670 210.276,166.207 210.561,160.241 209.744 L 158.370 209.487 158.485 206.047 L 158.600 202.606 159.800 202.351 C 160.460 202.212,161.240 202.165,161.533 202.249 C 161.826 202.332,163.022 202.400,164.192 202.400 M276.548 203.927 C 277.022 206.795,276.846 209.497,276.167 209.757 C 275.346 210.072,272.226 210.030,270.238 209.676 L 268.676 209.399 268.766 206.017 C 268.877 201.812,268.486 202.178,272.713 202.327 L 276.304 202.454 276.548 203.927 M222.400 206.200 L 222.400 210.000 219.033 210.000 C 214.233 210.000,214.400 210.146,214.400 205.957 L 214.400 202.400 218.400 202.400 L 222.400 202.400 222.400 206.200 " stroke="none" fill="#04cfb4" fill-rule="evenodd"></path><path id="path1" d="M0.000 200.000 L 0.000 400.000 200.000 400.000 L 400.000 400.000 400.000 200.000 L 400.000 0.000 200.000 0.000 L 0.000 0.000 0.000 200.000 M249.064 174.756 C 255.318 179.781,256.400 181.640,256.400 187.359 C 256.400 192.442,256.465 192.504,259.090 189.910 L 261.226 187.800 272.234 187.682 L 283.241 187.564 284.521 188.620 C 292.760 195.422,292.800 195.517,292.800 208.072 L 292.800 218.584 289.308 222.092 L 285.817 225.600 275.121 225.600 C 262.689 225.600,262.801 225.628,258.499 221.450 L 255.998 219.021 252.890 222.110 C 249.979 225.004,248.764 225.712,248.219 224.831 C 248.094 224.628,247.487 224.351,246.872 224.216 C 246.193 224.067,244.366 222.576,242.221 220.421 L 238.689 216.872 238.974 198.536 L 239.260 180.200 242.722 176.700 C 246.717 172.660,246.528 172.718,249.064 174.756 M212.371 177.844 L 216.800 182.087 216.800 184.797 C 216.800 188.107,216.528 187.987,224.073 187.995 L 229.547 188.000 233.873 192.151 L 238.200 196.303 238.315 207.451 L 238.429 218.600 235.006 222.000 L 231.584 225.400 220.782 225.518 C 211.463 225.621,209.895 225.552,209.361 225.018 C 209.021 224.678,208.465 224.400,208.125 224.400 C 207.360 224.400,201.331 218.596,200.562 217.120 C 199.733 215.527,199.733 182.075,200.562 180.480 C 201.211 179.230,206.913 173.600,207.529 173.600 C 207.756 173.600,209.936 175.510,212.371 177.844 M328.501 191.198 C 333.986 196.499,333.600 194.665,333.600 215.386 L 333.600 232.916 330.016 236.558 L 326.433 240.200 315.316 240.200 C 302.238 240.200,303.171 240.464,297.900 235.267 C 293.670 231.097,293.671 231.842,297.893 227.528 L 301.385 223.959 297.915 220.566 C 293.704 216.448,293.887 217.233,294.067 204.068 L 294.200 194.366 297.842 190.783 L 301.484 187.200 312.924 187.200 L 324.364 187.200 328.501 191.198 M95.038 188.014 C 95.637 188.242,98.079 190.361,100.464 192.722 L 104.800 197.015 104.800 207.565 L 104.800 218.116 101.234 221.740 L 97.669 225.363 95.534 224.308 C 94.273 223.685,92.172 222.011,90.400 220.218 L 87.400 217.182 87.273 210.591 L 87.146 204.000 84.773 204.000 L 82.400 204.000 82.400 211.329 L 82.400 218.658 79.049 221.929 C 75.633 225.263,74.881 225.661,74.000 224.600 C 73.726 224.270,73.205 224.000,72.842 224.000 C 72.479 224.000,70.656 222.466,68.791 220.591 L 65.400 217.181 65.400 206.000 L 65.400 194.818 68.600 191.574 C 70.360 189.789,72.160 188.177,72.600 187.990 C 73.773 187.493,93.722 187.514,95.038 188.014 M137.064 189.155 C 138.129 190.010,139.984 191.720,141.186 192.955 C 143.883 195.724,143.222 195.875,147.526 191.500 L 151.166 187.800 162.319 187.682 L 173.473 187.565 177.385 191.268 C 179.537 193.305,181.734 195.662,182.268 196.508 L 183.238 198.045 183.119 208.239 L 183.000 218.434 179.358 222.017 L 175.716 225.600 164.658 225.600 C 158.172 225.600,153.600 225.447,153.600 225.231 C 153.600 225.028,153.010 224.667,152.289 224.429 C 150.957 223.990,145.271 218.552,144.444 216.926 C 144.186 216.418,144.000 213.875,144.000 210.850 C 144.000 204.553,144.011 204.562,140.622 207.977 C 137.435 211.190,137.387 210.711,141.300 214.753 C 145.092 218.668,145.097 218.326,141.191 222.209 L 137.982 225.400 126.855 225.518 C 117.215 225.619,115.658 225.552,115.215 225.018 C 114.933 224.678,114.433 224.400,114.105 224.400 C 113.229 224.400,107.190 218.416,106.549 216.913 C 106.131 215.933,106.000 213.165,106.000 205.336 L 106.000 195.046 109.723 191.323 L 113.446 187.600 124.287 187.600 L 135.128 187.600 137.064 189.155 M123.200 201.200 C 123.200 201.913,123.467 202.000,125.643 202.000 C 127.706 202.000,128.048 201.902,127.843 201.367 C 127.709 201.019,127.600 200.659,127.600 200.567 C 127.600 200.475,126.610 200.400,125.400 200.400 C 123.467 200.400,123.200 200.497,123.200 201.200 M311.882 203.470 C 311.268 203.637,311.182 204.048,311.282 206.333 L 311.400 209.000 313.718 209.120 L 316.036 209.241 315.918 206.320 L 315.800 203.400 314.200 203.337 C 313.320 203.303,312.277 203.362,311.882 203.470 M161.200 206.600 L 161.200 209.200 163.600 209.200 L 166.000 209.200 166.000 206.600 L 166.000 204.000 163.600 204.000 L 161.200 204.000 161.200 206.600 M217.067 204.267 C 216.022 205.311,216.832 209.170,218.148 209.417 C 221.063 209.964,221.387 209.703,221.518 206.700 L 221.637 204.000 219.485 204.000 C 218.302 204.000,217.213 204.120,217.067 204.267 M271.200 206.580 L 271.200 209.200 273.619 209.200 L 276.038 209.200 275.919 206.700 L 275.800 204.200 273.500 204.080 L 271.200 203.960 271.200 206.580 M156.976 234.380 C 157.962 235.198,157.792 237.916,156.700 238.802 L 155.800 239.532 156.700 240.492 C 157.195 241.020,157.600 241.665,157.600 241.926 C 157.600 242.904,155.994 242.349,154.917 241.000 C 153.481 239.201,152.800 239.201,152.800 241.000 C 152.800 242.133,152.648 242.400,152.000 242.400 C 151.022 242.400,150.737 234.274,151.700 233.843 C 152.566 233.457,156.324 233.839,156.976 234.380 M171.200 238.150 L 171.200 242.300 169.950 242.550 C 166.767 243.187,165.600 242.318,165.600 239.311 C 165.600 237.319,166.640 236.000,168.210 236.000 C 168.919 236.000,169.333 235.702,169.600 235.000 C 170.538 232.533,171.200 233.837,171.200 238.150 M222.472 234.900 C 222.567 235.567,222.911 235.835,223.800 235.933 C 227.666 236.363,227.451 242.800,223.571 242.800 C 220.838 242.800,220.800 242.740,220.800 238.424 C 220.800 236.284,220.920 234.413,221.067 234.267 C 221.624 233.709,222.349 234.035,222.472 234.900 M229.114 238.365 C 229.219 242.118,229.168 242.453,228.514 242.328 C 227.761 242.184,227.262 237.003,227.796 234.873 C 228.356 232.641,229.002 234.352,229.114 238.365 M187.200 234.720 C 187.200 234.896,186.984 235.256,186.720 235.520 C 186.347 235.893,186.347 236.107,186.720 236.480 C 187.618 237.378,187.346 242.400,186.400 242.400 C 185.653 242.400,185.600 242.133,185.600 238.400 C 185.600 234.667,185.653 234.400,186.400 234.400 C 186.840 234.400,187.200 234.544,187.200 234.720 M203.526 238.435 C 203.643 242.154,203.596 242.458,202.926 242.325 C 201.790 242.100,201.788 234.400,202.924 234.400 C 203.252 234.400,203.439 235.651,203.526 238.435 M152.945 235.800 C 152.499 236.961,153.125 237.658,154.494 237.526 C 156.757 237.307,156.391 235.222,154.087 235.206 C 153.586 235.203,153.071 235.470,152.945 235.800 M163.723 236.500 C 164.094 236.775,164.401 237.450,164.404 238.000 C 164.430 242.394,164.195 242.800,161.626 242.800 C 159.076 242.800,157.763 238.813,159.589 236.613 C 160.205 235.871,162.778 235.800,163.723 236.500 M177.371 236.880 C 178.068 237.875,177.826 241.968,177.039 242.494 C 174.884 243.935,172.400 242.334,172.400 239.503 C 172.400 236.191,175.678 234.462,177.371 236.880 M183.793 236.792 C 184.313 237.367,184.394 237.725,184.088 238.094 C 183.787 238.457,183.828 238.824,184.233 239.378 C 185.891 241.644,182.776 243.886,180.019 242.410 C 178.993 241.861,178.921 237.004,179.930 236.415 C 181.068 235.751,183.023 235.942,183.793 236.792 M193.748 236.900 C 194.138 238.357,194.035 243.188,193.595 244.009 C 192.536 245.988,188.777 245.263,188.778 243.080 C 188.778 242.376,188.675 240.844,188.549 239.676 C 188.244 236.856,188.959 236.000,191.615 236.000 C 193.239 236.000,193.541 236.128,193.748 236.900 M200.069 236.662 C 201.180 237.668,201.140 242.400,200.020 242.400 C 199.351 242.400,199.223 242.073,199.120 240.100 C 199.008 237.945,198.937 237.800,198.000 237.800 C 197.063 237.800,196.992 237.945,196.880 240.100 C 196.777 242.073,196.649 242.400,195.980 242.400 C 194.860 242.400,194.783 236.568,195.900 236.276 C 197.486 235.861,199.377 236.037,200.069 236.662 M209.669 236.662 C 210.780 237.668,210.740 242.400,209.620 242.400 C 208.951 242.400,208.823 242.073,208.720 240.100 C 208.608 237.945,208.537 237.800,207.600 237.800 C 206.663 237.800,206.592 237.945,206.480 240.100 C 206.377 242.073,206.249 242.400,205.580 242.400 C 204.460 242.400,204.383 236.568,205.500 236.276 C 207.086 235.861,208.977 236.037,209.669 236.662 M216.948 236.900 C 217.338 238.357,217.235 243.188,216.795 244.009 C 215.736 245.988,211.977 245.263,211.978 243.080 C 211.978 242.376,211.875 240.844,211.749 239.676 C 211.444 236.856,212.159 236.000,214.815 236.000 C 216.439 236.000,216.741 236.128,216.948 236.900 M235.300 236.557 C 236.360 237.361,236.304 241.809,235.226 242.386 C 232.589 243.797,230.400 242.490,230.400 239.503 C 230.400 236.361,232.990 234.804,235.300 236.557 M242.718 239.600 C 242.875 244.115,242.697 244.708,241.093 245.009 C 238.772 245.444,237.622 244.694,237.576 242.713 C 237.555 241.771,237.511 240.127,237.480 239.059 C 237.409 236.623,238.202 235.913,240.800 236.082 L 242.600 236.200 242.718 239.600 M248.593 236.792 C 249.113 237.367,249.194 237.725,248.888 238.094 C 248.587 238.457,248.628 238.824,249.033 239.378 C 250.691 241.644,247.576 243.886,244.819 242.410 C 243.793 241.861,243.721 237.004,244.730 236.415 C 245.868 235.751,247.823 235.942,248.593 236.792 M161.000 238.000 C 160.860 238.227,161.196 238.400,161.776 238.400 C 162.339 238.400,162.800 238.220,162.800 238.000 C 162.800 237.780,162.451 237.600,162.024 237.600 C 161.597 237.600,161.136 237.780,161.000 238.000 M167.368 238.138 C 166.817 239.574,167.367 240.996,168.524 241.129 C 169.619 241.254,169.646 241.212,169.524 239.529 C 169.394 237.713,167.901 236.750,167.368 238.138 M174.000 238.000 C 174.000 238.220,174.551 238.400,175.224 238.400 C 175.937 238.400,176.344 238.233,176.200 238.000 C 176.064 237.780,175.513 237.600,174.976 237.600 C 174.439 237.600,174.000 237.780,174.000 238.000 M181.200 238.200 C 181.200 238.581,181.583 238.800,182.249 238.800 C 183.136 238.800,183.221 238.707,182.800 238.200 C 182.526 237.870,182.054 237.600,181.751 237.600 C 181.448 237.600,181.200 237.870,181.200 238.200 M190.000 239.200 C 190.000 240.767,190.057 240.847,191.100 240.727 C 192.066 240.615,192.200 240.430,192.200 239.200 C 192.200 237.970,192.066 237.785,191.100 237.673 C 190.057 237.553,190.000 237.633,190.000 239.200 M213.200 239.200 C 213.200 240.767,213.257 240.847,214.300 240.727 C 215.266 240.615,215.400 240.430,215.400 239.200 C 215.400 237.970,215.266 237.785,214.300 237.673 C 213.257 237.553,213.200 237.633,213.200 239.200 M222.684 237.850 C 221.738 238.795,222.412 241.200,223.623 241.200 C 224.814 241.200,224.843 241.156,224.723 239.500 C 224.603 237.843,223.546 236.987,222.684 237.850 M232.284 237.850 C 231.338 238.795,232.012 241.200,233.223 241.200 C 234.414 241.200,234.443 241.156,234.323 239.500 C 234.203 237.843,233.146 236.987,232.284 237.850 M239.218 238.178 C 238.382 239.186,238.865 240.584,240.100 240.727 C 241.140 240.846,241.200 240.765,241.200 239.227 C 241.200 237.475,240.228 236.961,239.218 238.178 M246.000 238.200 C 246.000 238.581,246.383 238.800,247.049 238.800 C 247.936 238.800,248.021 238.707,247.600 238.200 C 247.326 237.870,246.854 237.600,246.551 237.600 C 246.248 237.600,246.000 237.870,246.000 238.200 M161.084 240.250 C 160.928 240.406,160.800 240.695,160.800 240.893 C 160.800 241.381,162.802 241.104,162.912 240.600 C 163.016 240.129,161.496 239.838,161.084 240.250 M174.000 240.600 C 174.000 241.000,174.400 241.200,175.200 241.200 C 176.000 241.200,176.400 241.000,176.400 240.600 C 176.400 240.200,176.000 240.000,175.200 240.000 C 174.400 240.000,174.000 240.200,174.000 240.600 M180.898 240.266 C 180.119 240.580,180.734 241.200,181.824 241.200 C 182.921 241.200,183.132 240.613,182.167 240.243 C 181.819 240.109,181.504 240.014,181.467 240.032 C 181.430 240.049,181.174 240.154,180.898 240.266 M245.698 240.266 C 244.919 240.580,245.534 241.200,246.624 241.200 C 247.721 241.200,247.932 240.613,246.967 240.243 C 246.619 240.109,246.304 240.014,246.267 240.032 C 246.230 240.049,245.974 240.154,245.698 240.266 M190.098 242.900 C 190.351 243.669,192.000 243.780,192.000 243.028 C 192.000 242.619,191.639 242.400,190.967 242.400 C 190.319 242.400,189.995 242.587,190.098 242.900 M213.298 242.900 C 213.551 243.669,215.200 243.780,215.200 243.028 C 215.200 242.619,214.839 242.400,214.167 242.400 C 213.519 242.400,213.195 242.587,213.298 242.900 M239.300 242.900 C 239.392 243.175,239.797 243.400,240.200 243.400 C 240.603 243.400,241.008 243.175,241.100 242.900 C 241.206 242.583,240.876 242.400,240.200 242.400 C 239.524 242.400,239.194 242.583,239.300 242.900 " stroke="none" fill="#040404" fill-rule="evenodd"></path><path id="path2" d="M242.644 176.756 C 240.524 178.885,239.191 180.530,239.320 180.856 C 239.488 181.277,239.544 181.262,239.568 180.791 C 239.603 180.124,245.834 173.822,246.800 173.477 C 247.328 173.289,247.327 173.259,246.792 173.232 C 246.457 173.214,244.590 174.800,242.644 176.756 M203.955 176.668 C 202.221 178.355,200.870 179.803,200.951 179.885 C 201.033 179.967,202.436 178.676,204.068 177.017 C 207.661 173.365,207.174 173.377,210.938 176.846 C 214.704 180.316,215.109 181.059,215.127 184.537 C 215.143 187.670,215.083 187.543,216.629 187.744 C 217.273 187.828,217.575 187.817,217.300 187.719 C 216.966 187.600,216.800 186.635,216.800 184.814 L 216.800 182.087 212.371 177.844 C 207.094 172.787,207.837 172.891,203.955 176.668 M250.400 176.452 C 254.733 180.715,254.424 179.932,254.674 187.272 C 254.796 190.862,254.935 193.846,254.982 193.901 C 255.030 193.957,256.416 192.697,258.062 191.101 C 259.708 189.506,260.132 189.060,259.004 190.110 C 256.466 192.475,256.400 192.406,256.400 187.359 C 256.400 181.721,254.959 179.260,249.000 174.720 C 248.120 174.050,248.750 174.829,250.400 176.452 M200.243 181.033 C 200.109 181.381,200.000 189.400,200.000 198.853 C 200.000 218.622,199.645 216.761,204.261 221.200 L 207.381 224.200 204.117 220.776 C 200.035 216.493,200.349 218.475,200.485 197.900 C 200.548 188.275,200.574 180.400,200.543 180.400 C 200.511 180.400,200.376 180.685,200.243 181.033 M297.948 190.672 C 295.997 192.582,294.400 194.273,294.400 194.430 C 294.400 194.586,295.705 193.360,297.300 191.704 C 298.895 190.048,300.740 188.358,301.400 187.948 C 302.060 187.538,302.352 187.202,302.048 187.201 C 301.745 187.201,299.900 188.763,297.948 190.672 M327.341 190.665 C 329.288 192.656,331.024 194.516,331.200 194.799 C 331.375 195.083,331.545 203.444,331.577 213.379 L 331.636 231.444 327.640 235.322 L 323.643 239.200 313.402 239.200 C 301.497 239.200,302.367 239.442,297.859 234.879 C 294.152 231.127,294.110 231.498,298.745 227.124 L 301.934 224.116 298.532 220.758 C 296.661 218.911,294.977 217.040,294.790 216.600 C 294.522 215.968,294.445 215.939,294.425 216.464 C 294.411 216.830,295.972 218.665,297.893 220.544 L 301.385 223.959 297.893 227.528 C 293.671 231.842,293.670 231.097,297.900 235.267 C 303.171 240.464,302.238 240.200,315.316 240.200 L 326.433 240.200 330.016 236.558 L 333.600 232.916 333.600 215.277 C 333.600 202.248,333.472 197.345,333.111 196.519 C 332.528 195.186,328.599 190.975,325.800 188.684 C 324.437 187.568,324.928 188.200,327.341 190.665 M78.524 187.899 C 81.562 187.967,86.422 187.967,89.324 187.899 C 92.226 187.831,89.740 187.775,83.800 187.775 C 77.860 187.775,75.486 187.831,78.524 187.899 M110.031 191.100 L 106.578 194.600 109.811 191.486 C 111.590 189.774,113.574 188.214,114.222 188.021 C 115.288 187.702,115.309 187.666,114.442 187.634 C 113.745 187.609,112.546 188.551,110.031 191.100 M134.200 187.885 C 134.640 187.991,135.171 188.240,135.380 188.439 C 135.589 188.637,135.949 188.794,136.180 188.787 C 136.411 188.780,136.251 188.510,135.824 188.187 C 135.396 187.864,134.676 187.621,134.224 187.646 C 133.420 187.692,133.420 187.697,134.200 187.885 M162.648 187.900 L 173.496 188.013 176.940 191.235 C 181.273 195.289,181.186 194.953,181.083 207.332 L 181.000 217.263 177.292 220.860 L 173.584 224.457 162.589 224.329 C 156.384 224.256,152.031 224.345,152.597 224.533 C 153.149 224.717,153.600 225.032,153.600 225.233 C 153.600 225.447,158.223 225.600,164.658 225.600 L 175.716 225.600 179.358 222.017 L 183.000 218.434 183.119 208.239 L 183.238 198.045 182.268 196.508 C 181.734 195.662,179.545 193.312,177.404 191.285 L 173.510 187.600 162.655 187.693 L 151.800 187.787 162.648 187.900 M272.567 187.900 C 280.344 187.982,283.510 188.150,283.967 188.507 C 284.526 188.942,284.536 188.918,284.051 188.300 C 283.549 187.660,282.576 187.608,272.651 187.693 L 261.800 187.786 272.567 187.900 M68.843 191.356 C 66.852 193.358,65.592 194.932,65.721 195.256 C 65.883 195.666,65.945 195.645,65.968 195.171 C 65.986 194.825,67.508 193.070,69.351 191.271 C 71.194 189.472,72.585 188.000,72.442 188.000 C 72.299 188.000,70.680 189.510,68.843 191.356 M96.664 189.541 C 97.729 190.389,99.545 192.088,100.700 193.317 L 102.800 195.552 102.800 206.259 L 102.800 216.967 99.165 220.563 C 95.854 223.841,95.594 224.206,96.242 224.680 C 97.406 225.531,97.705 225.353,101.328 221.652 L 104.800 218.103 104.801 207.552 L 104.802 197.000 100.225 192.500 C 97.707 190.025,95.440 188.000,95.188 188.000 C 94.935 188.000,95.599 188.694,96.664 189.541 M147.422 191.600 C 143.208 195.906,144.013 195.837,140.400 192.200 C 138.761 190.550,137.312 189.200,137.181 189.200 C 137.050 189.200,138.278 190.536,139.911 192.169 L 142.879 195.137 142.740 198.960 L 142.600 202.784 139.246 206.154 L 135.892 209.525 136.715 210.663 C 137.168 211.288,138.633 212.874,139.969 214.187 C 143.009 217.174,143.073 216.796,138.822 220.957 L 135.243 224.458 124.419 224.329 C 118.465 224.258,113.820 224.268,114.097 224.352 C 114.374 224.436,114.893 224.759,115.252 225.071 C 115.787 225.536,117.872 225.616,126.943 225.518 L 137.982 225.400 141.191 222.209 C 145.097 218.326,145.092 218.668,141.300 214.753 C 137.387 210.711,137.435 211.190,140.622 207.977 C 144.011 204.563,144.000 204.553,144.000 210.843 C 144.000 217.052,144.034 217.135,148.260 221.200 L 151.379 224.200 148.351 221.000 C 144.318 216.737,144.539 217.520,144.216 206.349 C 143.887 194.943,143.597 196.043,148.188 191.300 C 149.945 189.485,151.284 188.000,151.164 188.000 C 151.043 188.000,149.360 189.620,147.422 191.600 M287.610 191.837 C 291.201 195.304,291.202 195.310,291.091 207.342 L 291.000 217.264 287.292 220.860 L 283.584 224.457 272.683 224.329 C 262.108 224.204,261.821 224.221,263.090 224.900 C 264.241 225.517,265.672 225.600,275.107 225.600 L 285.817 225.600 289.308 222.092 L 292.800 218.584 292.800 208.072 C 292.800 199.834,292.679 197.326,292.239 196.475 C 291.687 195.409,285.935 189.525,285.193 189.269 C 284.984 189.197,286.072 190.353,287.610 191.837 M233.693 192.237 C 237.014 195.779,236.876 195.099,236.726 207.174 L 236.600 217.288 232.858 220.872 L 229.115 224.457 218.355 224.329 C 212.274 224.256,208.030 224.345,208.597 224.533 C 209.149 224.717,209.600 225.040,209.600 225.251 C 209.600 225.491,213.739 225.592,220.592 225.518 L 231.584 225.400 235.006 222.000 L 238.429 218.600 238.315 207.502 L 238.200 196.404 234.616 192.902 C 231.626 189.980,231.473 189.870,233.693 192.237 M106.175 205.600 C 106.175 211.430,106.231 213.815,106.299 210.900 C 106.367 207.985,106.367 203.215,106.299 200.300 C 106.231 197.385,106.175 199.770,106.175 205.600 M294.173 205.800 C 294.173 211.300,294.230 213.605,294.299 210.923 C 294.368 208.241,294.368 203.741,294.299 200.923 C 294.230 198.105,294.174 200.300,294.173 205.800 M65.374 206.400 C 65.374 212.010,65.430 214.305,65.499 211.500 C 65.568 208.695,65.568 204.105,65.499 201.300 C 65.430 198.495,65.374 200.790,65.374 206.400 M238.886 207.008 L 238.800 217.017 242.308 220.508 C 244.237 222.429,245.922 224.000,246.052 224.000 C 246.182 224.000,244.739 222.478,242.844 220.618 L 239.400 217.236 239.186 207.118 L 238.973 197.000 238.886 207.008 M121.200 200.559 C 121.200 202.137,122.672 202.629,126.400 202.299 C 127.949 202.162,127.851 202.130,125.700 202.070 C 123.490 202.008,123.200 201.907,123.200 201.200 C 123.200 200.245,127.343 199.972,127.756 200.900 C 127.879 201.175,127.939 200.950,127.890 200.400 C 127.803 199.432,127.695 199.396,124.500 199.284 L 121.200 199.168 121.200 200.559 M160.100 202.724 C 159.254 202.848,159.200 203.045,159.200 206.003 L 159.200 209.151 160.900 209.405 C 161.835 209.544,163.410 209.600,164.400 209.529 L 166.200 209.400 166.200 206.333 C 166.200 204.646,166.110 203.182,166.000 203.081 C 165.730 202.831,161.225 202.558,160.100 202.724 M309.466 202.700 C 309.367 202.865,309.379 204.284,309.493 205.853 L 309.701 208.705 311.150 209.182 C 311.948 209.444,313.410 209.601,314.400 209.529 L 316.200 209.400 316.318 206.463 C 316.392 204.642,316.259 203.312,315.969 202.963 C 315.469 202.360,309.809 202.131,309.466 202.700 M80.600 210.003 L 80.600 217.207 77.400 220.385 C 73.249 224.507,73.153 224.506,68.808 220.300 L 65.400 217.000 68.791 220.500 C 70.656 222.425,72.479 224.000,72.842 224.000 C 73.205 224.000,73.726 224.270,74.000 224.600 C 74.881 225.661,75.633 225.263,79.049 221.929 L 82.400 218.658 82.400 211.329 L 82.400 204.000 84.800 204.000 L 87.200 204.000 87.288 210.300 L 87.375 216.600 87.506 211.000 C 87.579 207.920,87.531 204.815,87.401 204.100 L 87.164 202.800 83.882 202.800 L 80.600 202.800 80.600 210.003 M215.200 205.968 L 215.200 209.136 216.429 209.406 C 217.104 209.555,217.764 209.569,217.895 209.438 C 218.026 209.307,217.825 209.200,217.448 209.200 C 216.860 209.200,216.779 208.841,216.881 206.700 L 217.000 204.200 219.334 204.079 L 221.667 203.958 221.534 206.780 C 221.460 208.332,221.535 209.601,221.700 209.601 C 222.056 209.600,222.094 204.991,221.748 203.700 C 221.524 202.863,221.285 202.800,218.353 202.800 L 215.200 202.800 215.200 205.968 M269.200 205.934 L 269.200 209.100 270.450 209.350 C 272.182 209.696,275.913 209.664,276.139 209.300 C 276.242 209.135,275.173 209.060,273.763 209.134 L 271.200 209.268 271.200 206.599 L 271.200 203.929 273.611 204.064 C 275.585 204.175,276.001 204.091,275.906 203.600 C 275.817 203.136,275.043 202.974,272.496 202.884 L 269.200 202.768 269.200 205.934 M315.918 206.320 L 316.036 209.241 313.718 209.120 L 311.400 209.000 311.282 206.333 C 311.151 203.339,311.265 203.222,314.200 203.337 L 315.800 203.400 315.918 206.320 M166.000 206.600 L 166.000 209.200 163.600 209.200 L 161.200 209.200 161.200 206.600 L 161.200 204.000 163.600 204.000 L 166.000 204.000 166.000 206.600 M106.412 216.756 C 106.405 217.061,107.885 218.776,109.700 220.567 L 113.000 223.823 110.149 220.811 C 108.581 219.155,107.102 217.440,106.861 217.000 C 106.599 216.519,106.419 216.422,106.412 216.756 M87.600 217.168 C 87.600 217.696,94.292 224.000,94.851 223.999 C 95.153 223.998,94.860 223.662,94.200 223.253 C 93.540 222.844,91.785 221.242,90.300 219.693 C 88.815 218.145,87.600 217.008,87.600 217.168 M250.857 220.814 C 249.018 222.566,247.308 224.001,247.057 224.002 C 246.806 224.004,247.116 224.274,247.746 224.602 C 249.449 225.491,249.529 225.452,252.890 222.110 L 255.998 219.021 258.523 221.410 C 259.911 222.725,259.631 222.405,257.900 220.700 C 254.118 216.975,254.898 216.963,250.857 220.814 M151.700 233.865 C 150.506 234.347,151.393 234.590,153.877 234.462 C 156.111 234.348,156.650 234.447,157.124 235.062 C 157.500 235.551,157.632 235.597,157.514 235.200 C 157.147 233.957,153.530 233.126,151.700 233.865 M169.600 235.000 C 169.333 235.702,168.919 236.000,168.210 236.000 C 166.640 236.000,165.600 237.319,165.600 239.311 C 165.600 241.724,166.466 242.815,168.323 242.743 L 169.800 242.686 168.227 242.443 C 165.314 241.993,165.171 237.099,168.057 236.637 C 169.248 236.447,169.718 236.142,170.012 235.369 C 170.224 234.810,170.579 234.463,170.799 234.600 C 171.020 234.736,171.200 234.657,171.200 234.424 C 171.200 233.581,169.971 234.024,169.600 235.000 M221.067 234.267 C 220.449 234.884,220.777 242.306,221.433 242.557 C 222.753 243.064,225.076 242.800,225.738 242.069 C 226.666 241.043,226.641 237.536,225.700 236.711 C 224.722 235.854,222.400 235.566,222.400 236.301 C 222.400 236.713,222.709 236.796,223.551 236.611 C 225.151 236.259,226.000 237.210,226.000 239.352 C 226.000 241.806,225.360 242.482,223.185 242.327 L 221.400 242.200 221.400 238.400 C 221.400 235.573,221.528 234.626,221.900 234.700 C 222.175 234.755,222.400 234.620,222.400 234.400 C 222.400 233.950,221.476 233.858,221.067 234.267 M228.284 234.284 C 228.591 234.501,228.820 236.096,228.908 238.614 L 229.048 242.600 229.024 238.432 C 229.005 235.081,228.882 234.233,228.400 234.102 C 227.972 233.986,227.939 234.038,228.284 234.284 M185.600 235.800 C 185.600 236.707,185.776 237.165,186.100 237.100 C 186.913 236.937,186.991 240.952,186.191 241.752 C 185.594 242.349,185.608 242.400,186.371 242.400 C 187.344 242.400,187.639 237.399,186.720 236.480 C 186.347 236.107,186.347 235.893,186.720 235.520 C 187.425 234.815,187.307 234.400,186.400 234.400 C 185.752 234.400,185.600 234.667,185.600 235.800 M203.200 234.843 C 203.200 235.086,202.975 235.200,202.700 235.095 C 202.325 234.951,202.191 235.768,202.166 238.352 C 202.143 240.721,202.180 241.017,202.284 239.300 C 202.486 235.982,203.127 236.107,203.312 239.500 C 203.403 241.178,203.448 240.724,203.429 238.300 C 203.413 236.155,203.355 234.400,203.300 234.400 C 203.245 234.400,203.200 234.599,203.200 234.843 M227.744 238.400 C 227.744 240.490,227.812 241.345,227.894 240.300 C 227.976 239.255,227.976 237.545,227.894 236.500 C 227.812 235.455,227.744 236.310,227.744 238.400 M152.667 235.467 C 152.301 235.832,152.329 237.600,152.700 237.600 C 152.865 237.600,153.000 237.060,153.000 236.400 C 153.000 235.740,152.985 235.200,152.967 235.200 C 152.948 235.200,152.813 235.320,152.667 235.467 M155.557 235.529 C 155.896 235.766,156.023 236.270,155.880 236.817 C 155.717 237.438,155.773 237.587,156.060 237.300 C 156.623 236.737,156.339 235.504,155.600 235.303 C 155.101 235.167,155.094 235.205,155.557 235.529 M159.582 236.622 C 159.123 237.174,159.182 237.191,160.102 236.772 C 162.179 235.826,164.000 236.595,164.000 238.418 C 164.000 239.558,163.832 240.000,163.400 240.000 C 163.070 240.000,162.845 240.225,162.900 240.500 C 162.957 240.786,162.505 241.056,161.845 241.132 C 160.906 241.239,160.738 241.139,160.945 240.598 C 161.111 240.166,161.026 239.991,160.700 240.100 C 159.579 240.474,160.231 241.403,161.700 241.524 C 162.568 241.596,163.200 241.470,163.200 241.224 C 163.200 240.991,163.401 240.800,163.647 240.800 C 163.896 240.800,164.001 241.153,163.884 241.601 C 163.769 242.041,163.832 242.304,164.025 242.185 C 164.340 241.990,164.422 241.080,164.404 238.000 C 164.393 236.155,160.817 235.133,159.582 236.622 M173.415 236.376 C 173.277 236.598,173.737 236.662,174.536 236.533 C 175.298 236.409,176.308 236.536,176.845 236.822 C 177.716 237.286,177.752 237.272,177.251 236.665 C 176.656 235.944,173.814 235.730,173.415 236.376 M179.930 236.415 C 179.219 236.830,178.942 241.794,179.608 242.205 C 179.782 242.313,179.826 242.020,179.704 241.555 C 179.508 240.804,179.576 240.759,180.315 241.155 C 181.713 241.903,183.200 241.720,183.200 240.800 C 183.200 240.293,182.944 240.012,182.500 240.032 C 182.082 240.050,182.001 240.144,182.300 240.265 C 182.575 240.376,182.800 240.632,182.800 240.833 C 182.800 241.330,180.910 241.301,180.600 240.800 C 180.464 240.580,180.583 240.400,180.865 240.400 C 181.147 240.400,180.978 240.120,180.489 239.777 C 179.522 239.100,179.316 237.644,180.080 236.880 C 180.821 236.139,182.711 236.311,183.600 237.200 C 184.040 237.640,184.400 237.848,184.400 237.662 C 184.400 236.368,181.431 235.540,179.930 236.415 M189.062 236.731 C 188.610 237.231,188.421 238.088,188.465 239.431 L 188.530 241.400 188.765 239.223 C 189.017 236.886,190.232 236.045,192.678 236.513 C 193.185 236.610,193.600 236.534,193.600 236.345 C 193.600 235.641,189.751 235.970,189.062 236.731 M195.900 236.276 C 194.767 236.572,194.862 242.400,196.000 242.400 C 196.507 242.400,196.788 242.144,196.768 241.700 C 196.750 241.282,196.656 241.201,196.535 241.500 C 196.035 242.738,195.600 241.785,195.600 239.451 L 195.600 236.902 197.213 236.644 C 199.792 236.232,200.400 236.798,200.400 239.614 C 200.400 240.938,200.222 242.000,200.000 242.000 C 199.780 242.000,199.600 241.136,199.600 240.080 C 199.600 237.744,197.943 236.074,197.053 237.513 C 196.947 237.686,197.341 237.821,197.930 237.813 C 198.954 237.801,199.005 237.899,199.120 240.100 C 199.309 243.732,200.800 243.521,200.800 239.862 C 200.800 236.366,199.420 235.356,195.900 236.276 M205.500 236.276 C 204.367 236.572,204.462 242.400,205.600 242.400 C 206.107 242.400,206.388 242.144,206.368 241.700 C 206.350 241.282,206.256 241.201,206.135 241.500 C 205.635 242.738,205.200 241.785,205.200 239.451 L 205.200 236.902 206.813 236.644 C 209.392 236.232,210.000 236.798,210.000 239.614 C 210.000 240.938,209.822 242.000,209.600 242.000 C 209.380 242.000,209.200 241.136,209.200 240.080 C 209.200 237.744,207.543 236.074,206.653 237.513 C 206.547 237.686,206.941 237.821,207.530 237.813 C 208.554 237.801,208.605 237.899,208.720 240.100 C 208.909 243.732,210.400 243.521,210.400 239.862 C 210.400 236.366,209.020 235.356,205.500 236.276 M212.262 236.731 C 211.810 237.231,211.621 238.088,211.665 239.431 L 211.730 241.400 211.965 239.223 C 212.217 236.886,213.432 236.045,215.878 236.513 C 216.385 236.610,216.800 236.534,216.800 236.345 C 216.800 235.641,212.951 235.970,212.262 236.731 M231.027 236.770 C 230.644 237.194,230.415 237.869,230.519 238.270 C 230.672 238.864,230.716 238.835,230.754 238.114 C 230.844 236.393,233.788 235.788,235.200 237.200 C 235.640 237.640,236.000 237.795,236.000 237.544 C 236.000 236.031,232.227 235.444,231.027 236.770 M238.300 236.422 C 237.915 236.652,237.603 237.056,237.606 237.320 C 237.610 237.655,237.714 237.640,237.948 237.270 C 238.141 236.966,239.121 236.710,240.242 236.670 L 242.200 236.600 242.316 240.140 C 242.391 242.405,242.265 243.881,241.967 244.240 C 241.640 244.634,241.633 244.800,241.943 244.800 C 242.625 244.800,242.847 243.311,242.718 239.600 L 242.600 236.200 240.800 236.102 C 239.810 236.048,238.685 236.192,238.300 236.422 M244.730 236.415 C 244.019 236.830,243.742 241.794,244.408 242.205 C 244.582 242.313,244.626 242.020,244.504 241.555 C 244.308 240.804,244.376 240.759,245.115 241.155 C 246.513 241.903,248.000 241.720,248.000 240.800 C 248.000 240.293,247.744 240.012,247.300 240.032 C 246.882 240.050,246.801 240.144,247.100 240.265 C 247.375 240.376,247.600 240.632,247.600 240.833 C 247.600 241.330,245.710 241.301,245.400 240.800 C 245.264 240.580,245.383 240.400,245.665 240.400 C 245.947 240.400,245.778 240.120,245.289 239.777 C 244.322 239.100,244.116 237.644,244.880 236.880 C 245.621 236.139,247.511 236.311,248.400 237.200 C 248.840 237.640,249.200 237.848,249.200 237.662 C 249.200 236.368,246.231 235.540,244.730 236.415 M160.425 237.770 C 160.000 238.282,160.082 238.454,160.934 238.843 C 162.189 239.415,163.304 239.038,163.126 238.101 C 162.954 237.194,161.093 236.966,160.425 237.770 M168.700 237.612 C 170.281 238.248,170.015 241.352,168.400 241.115 C 167.740 241.018,167.200 241.099,167.200 241.295 C 167.200 241.490,167.785 241.594,168.500 241.525 C 170.699 241.313,170.602 237.161,168.400 237.231 C 168.065 237.242,168.197 237.410,168.700 237.612 M172.524 239.400 C 172.526 240.720,172.601 241.212,172.690 240.493 C 172.779 239.774,172.777 238.694,172.686 238.093 C 172.595 237.492,172.522 238.080,172.524 239.400 M175.000 237.485 C 176.432 237.830,176.627 238.400,175.313 238.400 C 174.628 238.400,173.965 238.175,173.840 237.900 C 173.716 237.625,173.657 237.760,173.710 238.200 C 173.835 239.231,175.658 239.495,176.409 238.590 C 177.045 237.822,176.372 237.183,175.000 237.253 L 174.200 237.293 175.000 237.485 M181.067 237.467 C 180.205 238.328,180.853 239.200,182.353 239.200 C 185.310 239.200,184.892 242.237,181.898 242.507 L 180.200 242.660 181.838 242.730 C 184.868 242.859,185.631 240.690,183.396 238.300 C 182.387 237.220,181.596 236.938,181.067 237.467 M191.526 237.622 C 192.942 238.190,192.637 240.550,191.124 240.724 C 190.123 240.840,190.038 240.729,189.894 239.124 L 189.740 237.400 189.670 239.113 C 189.587 241.136,190.810 242.032,192.100 240.894 C 193.527 239.635,192.822 237.130,191.067 237.225 C 190.810 237.239,191.017 237.418,191.526 237.622 M193.680 240.169 C 193.622 242.469,193.419 243.537,192.938 244.069 C 192.565 244.481,192.471 244.800,192.724 244.800 C 193.617 244.800,194.031 243.139,193.897 240.095 L 193.761 237.000 193.680 240.169 M214.726 237.622 C 216.142 238.190,215.837 240.550,214.324 240.724 C 213.323 240.840,213.238 240.729,213.094 239.124 L 212.940 237.400 212.870 239.113 C 212.787 241.136,214.010 242.032,215.300 240.894 C 216.727 239.635,216.022 237.130,214.267 237.225 C 214.010 237.239,214.217 237.418,214.726 237.622 M216.880 240.169 C 216.822 242.469,216.619 243.537,216.138 244.069 C 215.765 244.481,215.671 244.800,215.924 244.800 C 216.817 244.800,217.231 243.139,217.097 240.095 L 216.961 237.000 216.880 240.169 M222.653 237.513 C 222.547 237.686,222.941 237.821,223.530 237.813 C 224.474 237.802,224.629 237.988,224.843 239.400 L 225.086 241.000 225.143 239.580 C 225.218 237.706,223.445 236.233,222.653 237.513 M232.023 237.772 C 230.923 239.098,231.669 241.400,233.200 241.400 C 234.569 241.400,234.603 241.361,234.726 239.640 C 234.888 237.377,233.276 236.263,232.023 237.772 M239.100 237.624 C 237.335 238.673,239.077 242.122,240.884 241.155 C 241.990 240.563,241.760 237.443,240.600 237.304 C 240.160 237.251,239.485 237.395,239.100 237.624 M245.867 237.467 C 245.005 238.328,245.653 239.200,247.153 239.200 C 250.110 239.200,249.692 242.237,246.698 242.507 L 245.000 242.660 246.638 242.730 C 249.668 242.859,250.431 240.690,248.196 238.300 C 247.187 237.220,246.396 236.938,245.867 237.467 M156.300 238.293 C 155.005 238.941,154.957 239.188,155.927 240.229 C 156.327 240.658,156.861 241.367,157.115 241.805 C 157.418 242.329,157.580 242.404,157.588 242.026 C 157.595 241.710,157.195 241.020,156.700 240.492 L 155.800 239.532 156.757 238.756 C 157.954 237.785,157.743 237.571,156.300 238.293 M162.800 238.000 C 162.800 238.220,162.339 238.400,161.776 238.400 C 161.196 238.400,160.860 238.227,161.000 238.000 C 161.136 237.780,161.597 237.600,162.024 237.600 C 162.451 237.600,162.800 237.780,162.800 238.000 M182.800 238.200 C 183.221 238.707,183.136 238.800,182.249 238.800 C 181.583 238.800,181.200 238.581,181.200 238.200 C 181.200 237.870,181.448 237.600,181.751 237.600 C 182.054 237.600,182.526 237.870,182.800 238.200 M234.323 239.500 C 234.443 241.156,234.414 241.200,233.223 241.200 C 232.072 241.200,232.000 241.110,232.000 239.667 C 232.000 236.813,234.118 236.661,234.323 239.500 M241.200 239.227 C 241.200 240.765,241.140 240.846,240.100 240.727 C 238.196 240.507,238.520 237.600,240.449 237.600 C 241.061 237.600,241.200 237.902,241.200 239.227 M247.600 238.200 C 248.021 238.707,247.936 238.800,247.049 238.800 C 246.383 238.800,246.000 238.581,246.000 238.200 C 246.000 237.870,246.248 237.600,246.551 237.600 C 246.854 237.600,247.326 237.870,247.600 238.200 M158.909 239.600 C 158.909 240.590,158.987 240.995,159.082 240.500 C 159.178 240.005,159.178 239.195,159.082 238.700 C 158.987 238.205,158.909 238.610,158.909 239.600 M237.293 239.200 C 237.293 239.970,237.375 240.285,237.476 239.900 C 237.576 239.515,237.576 238.885,237.476 238.500 C 237.375 238.115,237.293 238.430,237.293 239.200 M152.630 239.267 C 152.258 240.429,152.157 242.400,152.469 242.400 C 152.651 242.400,152.800 241.770,152.800 241.000 C 152.800 239.204,153.371 239.229,155.104 241.100 L 156.492 242.600 155.113 240.822 C 153.611 238.887,152.895 238.439,152.630 239.267 M176.900 239.893 C 176.625 239.989,176.400 240.322,176.400 240.633 C 176.400 241.497,174.105 241.376,173.876 240.500 C 173.738 239.973,173.681 240.023,173.646 240.700 C 173.591 241.775,175.675 241.972,176.942 241.013 C 177.744 240.405,177.715 239.611,176.900 239.893 M230.406 240.633 C 230.409 241.055,230.595 241.670,230.818 242.000 C 231.115 242.438,231.152 242.276,230.956 241.400 C 230.627 239.929,230.398 239.610,230.406 240.633 M222.900 241.476 C 223.285 241.576,223.915 241.576,224.300 241.476 C 224.685 241.375,224.370 241.293,223.600 241.293 C 222.830 241.293,222.515 241.375,222.900 241.476 M237.785 242.897 C 237.795 243.984,238.001 244.597,238.400 244.730 C 238.918 244.903,238.924 244.838,238.443 244.255 C 237.758 243.425,238.160 242.903,238.968 243.574 C 239.967 244.403,241.400 243.947,241.400 242.800 C 241.400 241.950,241.239 241.819,240.322 241.926 C 239.729 241.995,238.912 241.874,238.507 241.657 C 237.846 241.304,237.772 241.432,237.785 242.897 M176.973 241.980 C 176.768 242.182,175.880 242.418,175.000 242.506 L 173.400 242.666 175.000 242.727 C 176.542 242.786,178.006 242.272,177.562 241.828 C 177.443 241.710,177.179 241.778,176.973 241.980 M188.928 242.157 C 189.086 243.005,190.226 244.000,191.040 244.000 C 191.999 244.000,192.958 243.074,192.724 242.372 C 192.540 241.821,188.827 241.610,188.928 242.157 M212.128 242.157 C 212.286 243.005,213.426 244.000,214.240 244.000 C 215.199 244.000,216.158 243.074,215.924 242.372 C 215.740 241.821,212.027 241.610,212.128 242.157 M161.105 242.683 C 161.602 242.779,162.322 242.775,162.705 242.675 C 163.087 242.575,162.680 242.496,161.800 242.501 C 160.920 242.505,160.607 242.587,161.105 242.683 M192.000 243.028 C 192.000 243.445,191.708 243.613,191.131 243.528 C 189.851 243.339,189.714 242.400,190.967 242.400 C 191.639 242.400,192.000 242.619,192.000 243.028 M215.200 243.028 C 215.200 243.445,214.908 243.613,214.331 243.528 C 213.051 243.339,212.914 242.400,214.167 242.400 C 214.839 242.400,215.200 242.619,215.200 243.028 M232.300 242.682 C 232.795 242.778,233.605 242.778,234.100 242.682 C 234.595 242.587,234.190 242.509,233.200 242.509 C 232.210 242.509,231.805 242.587,232.300 242.682 M241.100 242.900 C 241.008 243.175,240.603 243.400,240.200 243.400 C 239.797 243.400,239.392 243.175,239.300 242.900 C 239.194 242.583,239.524 242.400,240.200 242.400 C 240.876 242.400,241.206 242.583,241.100 242.900 " stroke="none" fill="#046134" fill-rule="evenodd"></path><path id="path3" d="M242.791 177.009 L 239.400 180.417 239.288 198.645 L 239.176 216.874 242.453 220.230 C 245.509 223.362,246.942 224.391,247.486 223.848 C 247.610 223.724,247.281 223.456,246.755 223.253 C 246.230 223.050,244.405 221.446,242.700 219.688 L 239.600 216.492 239.600 199.270 C 239.600 183.099,239.842 179.325,240.710 181.929 C 240.796 182.188,241.063 182.400,241.303 182.400 C 241.543 182.400,241.312 181.945,240.790 181.389 L 239.840 180.378 243.011 177.189 C 246.896 173.281,246.456 173.263,250.806 177.500 C 252.783 179.425,254.400 180.867,254.400 180.705 C 254.400 180.140,247.398 173.600,246.793 173.600 C 246.457 173.600,244.656 175.134,242.791 177.009 M203.825 177.255 L 200.600 180.510 200.485 197.955 C 200.421 207.550,200.478 215.839,200.612 216.376 C 200.917 217.607,207.124 224.011,207.971 223.968 C 208.510 223.941,208.514 223.906,208.000 223.722 C 206.787 223.287,202.323 218.548,201.554 216.878 C 200.795 215.233,200.766 214.401,200.880 197.987 L 201.000 180.818 204.191 177.609 C 208.021 173.757,207.177 173.777,211.233 177.438 L 214.600 180.475 211.244 177.238 C 207.170 173.308,207.737 173.306,203.825 177.255 M214.640 183.967 C 214.718 187.432,214.908 188.023,215.924 187.954 C 216.533 187.912,216.531 187.889,215.900 187.724 C 215.191 187.539,214.973 186.222,215.171 183.317 C 215.219 182.611,215.104 181.757,214.914 181.418 C 214.702 181.039,214.597 182.022,214.640 183.967 M254.139 184.600 C 254.278 185.480,254.393 188.045,254.396 190.300 C 254.398 192.555,254.535 194.400,254.700 194.400 C 255.101 194.401,254.631 183.691,254.213 183.303 C 254.034 183.137,254.000 183.720,254.139 184.600 M301.400 187.948 C 300.740 188.358,298.887 190.056,297.282 191.723 L 294.364 194.752 294.482 205.774 L 294.600 216.796 298.257 220.452 L 301.914 224.109 298.457 227.502 C 295.034 230.862,295.028 230.871,297.844 228.456 C 299.408 227.114,300.910 225.750,301.181 225.423 C 301.615 224.900,301.788 224.905,302.643 225.465 C 304.677 226.797,303.124 224.768,299.187 220.948 C 296.080 217.933,295.330 216.990,295.505 216.318 C 295.660 215.727,295.582 215.564,295.244 215.773 C 294.872 216.002,294.790 213.607,294.881 205.245 L 295.000 194.420 297.800 191.582 C 301.111 188.225,301.826 187.757,302.626 188.421 C 303.085 188.802,303.200 188.768,303.200 188.249 C 303.200 187.667,304.257 187.600,313.386 187.600 L 323.572 187.600 325.086 188.880 L 326.600 190.160 325.222 188.680 L 323.843 187.200 313.222 187.201 C 303.559 187.203,302.492 187.270,301.400 187.948 M119.700 187.899 C 122.285 187.968,126.515 187.968,129.100 187.899 C 131.685 187.829,129.570 187.772,124.400 187.772 C 119.230 187.772,117.115 187.829,119.700 187.899 M69.244 191.382 L 65.800 194.765 65.682 205.855 L 65.563 216.946 68.873 220.273 C 71.149 222.561,72.476 223.600,73.123 223.600 C 73.967 223.600,80.400 217.936,80.400 217.193 C 80.400 217.058,78.970 218.354,77.223 220.074 C 73.324 223.910,73.358 223.910,69.294 220.100 L 65.988 217.000 65.994 206.451 C 66.000 196.667,66.048 195.942,66.664 196.451 C 67.272 196.953,67.281 196.924,66.770 196.103 C 66.097 195.023,72.027 188.582,73.972 188.280 C 74.956 188.127,74.951 188.117,73.844 188.060 C 72.897 188.011,72.069 188.609,69.244 191.382 M93.700 188.276 C 94.085 188.376,94.400 188.645,94.400 188.872 C 94.400 189.100,94.656 189.187,94.969 189.067 C 95.316 188.934,96.840 190.068,98.869 191.971 L 102.200 195.093 102.413 206.046 L 102.625 217.000 102.713 206.276 L 102.800 195.552 100.700 193.317 C 97.801 190.232,94.894 187.991,93.864 188.046 C 93.188 188.083,93.152 188.133,93.700 188.276 M109.948 191.472 C 107.997 193.382,106.400 195.073,106.400 195.230 C 106.400 195.386,107.705 194.167,109.300 192.519 C 110.895 190.871,112.830 189.188,113.600 188.779 C 114.565 188.267,114.766 188.030,114.248 188.018 C 113.828 188.008,111.934 189.530,109.948 191.472 M134.000 188.220 C 134.000 188.342,134.595 188.689,135.322 188.993 C 136.049 189.297,137.984 190.755,139.622 192.233 L 142.600 194.920 139.600 191.960 C 136.240 188.644,134.000 187.149,134.000 188.220 M148.188 191.300 C 145.055 194.537,143.746 196.279,144.146 196.679 C 144.548 197.081,145.200 196.331,145.200 195.466 C 145.200 194.326,150.604 188.904,152.224 188.420 C 153.353 188.083,153.359 188.067,152.391 188.034 C 151.630 188.008,150.597 188.811,148.188 191.300 M174.069 189.069 C 174.801 189.657,176.492 191.142,177.827 192.369 C 179.161 193.596,178.734 193.115,176.877 191.300 C 175.020 189.485,173.330 188.000,173.120 188.000 C 172.910 188.000,173.337 188.481,174.069 189.069 M222.860 188.380 C 229.833 188.625,228.937 188.285,233.427 192.385 C 234.761 193.603,234.334 193.115,232.477 191.300 L 229.101 188.000 222.851 188.080 L 216.600 188.160 222.860 188.380 M258.462 190.817 C 256.847 192.348,255.647 193.600,255.797 193.600 C 255.947 193.600,257.179 192.536,258.535 191.236 C 259.947 189.881,261.598 188.701,262.400 188.472 L 263.800 188.072 262.600 188.053 C 261.650 188.038,260.787 188.614,258.462 190.817 M284.069 189.070 C 290.759 194.447,290.797 194.552,290.686 207.333 L 290.600 217.266 287.124 220.626 L 283.649 223.986 273.324 224.100 L 263.000 224.214 273.321 224.307 L 283.642 224.400 287.321 220.832 L 291.000 217.264 291.091 207.342 C 291.143 201.750,291.010 196.781,290.788 195.955 C 290.400 194.516,284.142 188.000,283.147 188.000 C 282.922 188.000,283.337 188.481,284.069 189.070 M330.655 194.600 C 331.580 196.179,331.600 196.203,331.600 195.711 C 331.600 195.479,331.229 194.864,330.776 194.344 L 329.953 193.400 330.655 194.600 M142.542 198.600 C 142.541 200.580,142.608 201.440,142.692 200.512 C 142.776 199.584,142.777 197.964,142.695 196.912 C 142.612 195.860,142.543 196.620,142.542 198.600 M236.200 206.217 L 236.200 217.178 233.203 220.289 L 230.207 223.400 233.403 220.297 L 236.600 217.195 236.725 206.806 C 236.793 201.092,236.703 196.156,236.525 195.837 C 236.346 195.517,236.200 200.189,236.200 206.217 M331.295 214.774 C 331.201 231.260,331.195 231.354,330.311 232.374 L 329.423 233.400 330.516 232.386 L 331.609 231.373 331.500 214.786 L 331.391 198.200 331.295 214.774 M123.100 199.089 C 123.815 199.178,124.985 199.178,125.700 199.089 C 126.415 199.001,125.830 198.928,124.400 198.928 C 122.970 198.928,122.385 199.001,123.100 199.089 M120.952 200.600 C 120.993 201.965,121.133 202.208,121.906 202.253 C 122.614 202.295,122.641 202.268,122.029 202.128 C 121.468 202.001,121.197 201.531,121.075 200.475 L 120.905 199.000 120.952 200.600 M180.800 208.133 L 180.600 217.267 177.124 220.627 L 173.649 223.986 163.324 224.100 L 153.000 224.214 163.314 224.307 L 173.628 224.400 177.189 220.967 C 181.424 216.885,181.309 217.315,181.122 206.200 L 181.000 199.000 180.800 208.133 M128.025 201.100 L 128.000 202.400 125.500 202.471 L 123.000 202.541 125.800 202.771 C 128.869 203.022,129.229 202.751,128.443 200.781 C 128.064 199.833,128.050 199.844,128.025 201.100 M144.290 208.600 C 144.376 212.340,144.532 215.816,144.637 216.323 C 144.881 217.509,151.104 224.010,151.955 223.968 C 152.497 223.942,152.504 223.902,152.000 223.722 C 150.802 223.293,146.327 218.558,145.573 216.922 C 144.937 215.541,144.792 214.267,144.753 209.722 C 144.727 206.685,144.577 203.660,144.419 203.000 C 144.262 202.340,144.204 204.860,144.290 208.600 M309.295 202.500 C 308.359 203.663,309.200 209.107,310.350 209.328 C 311.713 209.589,311.996 209.315,310.699 208.989 C 309.781 208.759,309.687 208.516,309.494 205.870 C 309.232 202.257,309.106 202.400,312.544 202.400 C 316.169 202.400,316.400 202.628,316.400 206.200 C 316.400 207.876,316.203 209.237,315.920 209.520 C 315.547 209.893,315.591 210.000,316.120 210.000 C 316.966 210.000,317.144 203.304,316.320 202.480 C 315.660 201.820,309.830 201.836,309.295 202.500 M83.857 202.697 C 87.816 202.860,87.587 202.368,87.595 210.743 L 87.600 216.885 90.500 219.881 C 93.268 222.741,95.600 224.458,95.600 223.637 C 95.600 223.426,95.245 223.141,94.810 223.003 C 94.376 222.865,92.666 221.411,91.010 219.772 L 88.000 216.791 88.000 210.369 C 88.000 202.202,88.091 202.377,83.886 202.481 L 80.600 202.563 83.857 202.697 M163.772 202.686 C 164.985 202.771,166.021 203.051,166.113 203.319 C 166.203 203.584,166.258 203.530,166.235 203.200 C 166.202 202.745,165.635 202.592,163.894 202.567 L 161.596 202.534 163.772 202.686 M214.969 202.937 C 214.424 204.356,214.995 209.391,215.708 209.455 C 216.204 209.500,216.234 209.462,215.808 209.330 C 215.331 209.182,215.200 208.458,215.200 205.971 L 215.200 202.800 218.353 202.800 C 221.997 202.800,221.985 202.786,221.995 207.082 L 222.000 209.563 219.300 209.703 L 216.600 209.843 219.500 209.922 L 222.400 210.000 222.400 206.974 C 222.400 202.582,222.240 202.400,218.373 202.400 C 216.065 202.400,215.118 202.550,214.969 202.937 M268.969 202.937 C 268.372 204.493,268.999 209.400,269.800 209.439 C 270.409 209.469,270.433 209.439,269.900 209.311 C 269.306 209.170,269.200 208.662,269.200 205.943 L 269.200 202.741 272.563 202.871 C 274.413 202.942,275.842 202.865,275.740 202.700 C 275.388 202.135,269.193 202.352,268.969 202.937 M138.701 206.226 L 135.203 209.631 138.648 213.205 C 141.004 215.648,142.017 216.979,141.851 217.410 C 141.712 217.775,141.776 217.938,142.005 217.797 C 142.794 217.309,142.355 216.530,139.969 214.187 C 138.633 212.874,137.168 211.288,136.715 210.663 L 135.892 209.525 139.237 206.163 C 141.077 204.313,142.496 202.805,142.391 202.811 C 142.286 202.817,140.626 204.354,138.701 206.226 M80.307 209.233 C 80.477 216.975,80.688 217.906,80.706 211.000 C 80.714 207.920,80.599 204.965,80.450 204.433 C 80.301 203.901,80.237 206.061,80.307 209.233 M276.058 206.400 L 276.138 209.400 273.569 209.631 L 271.000 209.862 273.267 209.931 C 276.654 210.034,276.801 209.914,276.794 207.057 C 276.791 205.706,276.605 204.330,276.383 204.000 C 276.095 203.573,276.001 204.267,276.058 206.400 M158.901 208.800 C 158.990 209.130,159.499 209.433,160.031 209.474 C 160.795 209.532,160.831 209.501,160.200 209.328 C 159.760 209.207,159.251 208.903,159.070 208.654 C 158.851 208.354,158.794 208.404,158.901 208.800 M166.293 208.901 C 166.104 209.394,165.404 209.597,163.520 209.703 L 161.000 209.846 163.400 209.917 C 165.949 209.992,167.008 209.625,166.722 208.766 C 166.594 208.382,166.479 208.418,166.293 208.901 M106.415 215.326 C 106.387 216.685,112.491 224.000,113.652 224.000 C 113.800 224.000,112.679 222.800,111.160 221.333 C 109.557 219.786,107.985 217.814,107.414 216.633 C 106.872 215.515,106.423 214.927,106.415 215.326 M99.100 220.197 C 97.395 221.833,96.000 223.292,96.000 223.439 C 96.000 223.587,97.440 222.298,99.200 220.575 C 102.093 217.744,102.616 217.176,102.300 217.211 C 102.245 217.217,100.805 218.561,99.100 220.197 M252.200 219.200 C 251.117 220.300,249.925 221.297,249.552 221.415 C 249.179 221.534,248.763 221.919,248.628 222.272 C 248.298 223.132,249.074 222.544,252.070 219.666 L 254.340 217.485 255.870 218.710 C 256.711 219.384,258.293 220.850,259.385 221.968 C 260.477 223.086,261.527 224.000,261.720 224.000 C 262.167 224.000,257.837 219.751,255.913 218.300 C 254.111 216.942,254.522 216.843,252.200 219.200 M136.272 223.100 C 135.655 223.718,134.373 223.825,125.286 224.013 L 115.000 224.227 125.078 224.313 L 135.155 224.400 136.278 223.413 C 136.895 222.870,137.304 222.420,137.186 222.413 C 137.068 222.406,136.657 222.715,136.272 223.100 M229.434 223.500 C 229.270 223.665,224.605 223.896,219.067 224.014 L 209.000 224.227 219.051 224.314 C 227.571 224.387,229.178 224.309,229.600 223.800 C 230.107 223.189,229.978 222.955,229.434 223.500 M294.800 231.555 C 294.800 231.986,301.327 238.274,302.274 238.756 C 302.754 239.000,304.014 239.175,305.074 239.144 L 307.000 239.087 305.000 238.809 C 301.975 238.388,301.262 237.954,297.900 234.488 C 296.195 232.730,294.800 231.410,294.800 231.555 M323.055 238.600 C 322.767 239.352,323.172 239.347,324.176 238.587 C 324.939 238.010,324.938 238.000,324.119 238.000 C 323.661 238.000,323.182 238.270,323.055 238.600 " stroke="none" fill="#047464" fill-rule="evenodd"></path><path id="path4" d="M211.711 178.219 C 213.451 180.046,214.107 181.073,214.396 182.419 L 214.778 184.200 214.618 182.433 C 214.477 180.874,214.161 180.380,211.933 178.233 L 209.409 175.800 211.711 178.219 M253.646 180.800 C 253.665 181.130,253.824 181.850,254.000 182.400 L 254.320 183.400 254.354 182.400 C 254.373 181.850,254.213 181.130,254.000 180.800 C 253.655 180.267,253.616 180.267,253.646 180.800 M254.086 190.303 L 254.000 195.606 255.200 194.537 C 256.550 193.334,256.667 193.123,255.800 193.455 C 255.470 193.582,255.200 193.846,255.200 194.043 C 255.200 194.239,255.026 194.400,254.813 194.400 C 254.592 194.400,254.371 192.377,254.299 189.700 L 254.172 185.000 254.086 190.303 M214.531 186.800 C 214.593 188.054,214.725 188.208,215.800 188.278 C 216.917 188.351,216.931 188.336,216.001 188.061 C 215.333 187.863,214.912 187.372,214.732 186.582 C 214.473 185.451,214.465 185.461,214.531 186.800 M232.000 191.400 C 232.746 192.170,233.447 192.800,233.557 192.800 C 233.667 192.800,233.146 192.170,232.400 191.400 C 231.654 190.630,230.953 190.000,230.843 190.000 C 230.733 190.000,231.254 190.630,232.000 191.400 M179.656 194.945 C 179.939 195.575,180.242 195.873,180.331 195.606 C 180.420 195.340,180.189 194.824,179.818 194.461 C 179.186 193.842,179.176 193.873,179.656 194.945 M235.057 194.400 C 235.308 194.730,235.602 195.360,235.711 195.800 C 235.897 196.560,235.910 196.557,235.954 195.749 C 235.979 195.281,235.685 194.651,235.300 194.349 C 234.691 193.872,234.660 193.878,235.057 194.400 M330.712 212.912 L 330.824 231.349 328.927 233.274 C 327.884 234.333,327.178 235.200,327.358 235.200 C 327.539 235.200,328.475 234.345,329.439 233.300 L 331.191 231.400 331.190 213.400 C 331.189 203.500,331.056 195.192,330.894 194.938 C 330.732 194.683,330.650 202.772,330.712 212.912 M102.093 206.188 L 102.000 216.977 99.704 219.388 L 97.409 221.800 99.911 219.389 L 102.413 216.979 102.300 206.189 L 102.186 195.400 102.093 206.188 M180.573 206.000 C 180.573 211.390,180.630 213.595,180.699 210.900 C 180.768 208.205,180.768 203.795,180.699 201.100 C 180.630 198.405,180.573 200.610,180.573 206.000 M144.131 199.400 C 144.133 200.940,144.205 201.521,144.292 200.691 C 144.379 199.861,144.377 198.601,144.289 197.891 C 144.200 197.181,144.129 197.860,144.131 199.400 M120.800 198.700 C 120.800 198.865,122.420 199.000,124.400 199.000 C 126.380 199.000,128.000 198.865,128.000 198.700 C 128.000 198.535,126.380 198.400,124.400 198.400 C 122.420 198.400,120.800 198.535,120.800 198.700 M120.400 200.776 C 120.400 201.423,120.542 202.041,120.716 202.148 C 120.890 202.256,120.961 201.727,120.873 200.972 C 120.676 199.291,120.400 199.177,120.400 200.776 M290.568 207.400 C 290.568 211.800,290.626 213.655,290.698 211.521 C 290.770 209.388,290.770 205.788,290.699 203.521 C 290.627 201.255,290.568 203.000,290.568 207.400 M236.167 207.600 C 236.167 211.890,236.226 213.645,236.298 211.500 C 236.370 209.355,236.370 205.845,236.298 203.700 C 236.226 201.555,236.167 203.310,236.167 207.600 M142.032 201.946 C 142.014 202.246,140.611 203.956,138.914 205.746 L 135.828 209.000 139.163 205.748 C 141.183 203.778,142.413 202.279,142.281 201.948 C 142.098 201.487,142.058 201.486,142.032 201.946 M308.800 202.266 C 308.800 202.806,308.907 202.853,309.280 202.480 C 309.935 201.825,315.671 201.841,316.370 202.500 C 316.798 202.904,316.865 202.884,316.718 202.400 C 316.423 201.430,308.800 201.301,308.800 202.266 M158.667 202.667 C 158.283 203.050,158.337 209.600,158.723 209.600 C 158.901 209.600,159.093 207.980,159.151 206.000 C 159.252 202.467,159.203 202.130,158.667 202.667 M214.400 205.957 C 214.400 209.662,214.594 210.064,216.333 209.960 C 216.710 209.938,216.565 209.799,216.000 209.641 C 215.031 209.370,215.000 209.252,215.000 205.880 C 215.000 203.965,214.865 202.399,214.700 202.399 C 214.535 202.400,214.400 204.001,214.400 205.957 M308.877 206.900 L 308.800 209.600 309.900 209.546 C 310.815 209.500,310.852 209.462,310.118 209.320 C 309.343 209.170,309.220 208.852,309.095 206.675 L 308.954 204.200 308.877 206.900 M80.160 211.000 C 80.161 214.300,80.222 215.597,80.298 213.882 C 80.373 212.167,80.372 209.467,80.297 207.882 C 80.221 206.297,80.159 207.700,80.160 211.000 M180.046 216.591 C 180.021 217.025,178.697 218.735,177.103 220.391 L 174.207 223.400 177.344 220.357 C 179.622 218.146,180.427 217.106,180.287 216.557 C 180.103 215.842,180.090 215.843,180.046 216.591 M235.646 216.591 C 235.621 217.025,234.297 218.735,232.703 220.391 L 229.807 223.400 232.944 220.357 C 235.222 218.146,236.027 217.106,235.887 216.557 C 235.703 215.842,235.690 215.843,235.646 216.591 M290.046 216.591 C 290.021 217.025,288.697 218.735,287.103 220.391 L 284.207 223.400 287.344 220.357 C 289.622 218.146,290.427 217.106,290.287 216.557 C 290.103 215.842,290.090 215.843,290.046 216.591 M251.906 218.820 C 249.086 221.744,249.378 221.986,252.275 219.126 L 254.374 217.053 255.249 217.826 L 256.124 218.600 255.416 217.500 C 254.499 216.075,254.581 216.045,251.906 218.820 M77.785 219.300 L 75.800 221.400 77.900 219.415 C 79.055 218.323,80.000 217.378,80.000 217.315 C 80.000 217.017,79.629 217.349,77.785 219.300 M138.591 220.485 C 136.836 222.291,135.843 223.416,136.384 222.985 C 137.597 222.017,142.000 217.621,142.000 217.377 C 142.000 217.010,141.702 217.281,138.591 220.485 M151.370 234.933 C 151.258 235.227,151.218 236.938,151.283 238.736 C 151.404 242.121,152.047 243.161,152.400 240.545 C 152.680 238.471,153.284 238.480,155.006 240.581 C 156.411 242.295,157.200 242.828,157.200 242.062 C 157.200 241.876,156.750 241.201,156.200 240.562 C 154.946 239.104,154.953 238.962,156.300 238.318 C 157.517 237.737,157.886 236.481,157.211 235.221 C 156.674 234.217,151.738 233.974,151.370 234.933 M170.027 235.328 C 169.717 236.146,169.268 236.444,168.057 236.637 C 164.687 237.176,165.384 242.200,168.829 242.200 L 171.000 242.200 171.116 238.636 C 171.239 234.896,170.753 233.420,170.027 235.328 M221.380 234.908 C 221.262 235.215,221.218 236.982,221.283 238.833 L 221.400 242.200 223.185 242.327 C 225.360 242.482,226.000 241.806,226.000 239.352 C 226.000 237.210,225.151 236.259,223.551 236.611 C 222.521 236.837,222.400 236.758,222.400 235.855 C 222.400 234.710,221.704 234.064,221.380 234.908 M228.000 238.400 C 228.000 240.800,228.160 242.400,228.400 242.400 C 228.640 242.400,228.800 240.800,228.800 238.400 C 228.800 236.000,228.640 234.400,228.400 234.400 C 228.160 234.400,228.000 236.000,228.000 238.400 M156.200 236.400 C 156.200 237.309,156.027 237.411,154.300 237.522 C 152.430 237.642,151.581 236.552,152.685 235.448 C 153.478 234.655,156.200 235.393,156.200 236.400 M159.900 236.832 C 159.065 237.318,158.900 241.140,159.680 241.920 C 160.402 242.642,163.572 242.538,163.862 241.783 C 164.168 240.986,163.656 240.462,163.236 241.141 C 162.786 241.871,160.200 241.580,160.200 240.800 C 160.200 240.368,160.732 240.166,162.100 240.078 L 164.000 239.956 164.000 238.425 C 164.000 236.517,161.865 235.688,159.900 236.832 M173.482 236.679 C 172.867 236.839,172.782 237.245,172.882 239.533 L 173.000 242.200 174.835 242.319 C 176.128 242.403,176.824 242.253,177.192 241.810 C 177.817 241.057,177.391 240.449,176.713 241.127 C 175.723 242.117,173.721 241.705,173.472 240.459 C 173.009 238.143,174.100 236.797,175.963 237.388 C 176.668 237.612,177.528 238.864,176.886 238.732 C 176.729 238.699,176.282 238.812,175.894 238.982 C 175.506 239.151,174.831 239.197,174.394 239.083 C 173.870 238.945,173.600 239.073,173.600 239.459 C 173.600 240.775,177.381 239.968,177.534 238.620 C 177.743 236.784,176.104 235.998,173.482 236.679 M180.080 236.880 C 178.709 238.251,179.999 240.181,182.122 239.933 C 183.326 239.793,183.438 239.866,183.281 240.689 C 183.087 241.704,181.749 241.922,180.338 241.167 C 179.652 240.799,179.550 240.845,179.668 241.467 C 179.877 242.569,183.386 242.748,183.954 241.686 C 184.740 240.218,184.073 239.200,182.326 239.200 C 180.917 239.200,180.758 239.102,180.872 238.304 C 181.028 237.210,182.083 236.940,182.923 237.780 C 183.698 238.555,184.000 238.565,184.000 237.814 C 184.000 236.600,181.060 235.900,180.080 236.880 M190.000 236.747 C 187.208 237.545,188.819 242.611,191.631 241.876 C 192.627 241.615,193.099 242.558,192.396 243.405 C 191.724 244.215,190.127 244.156,189.650 243.303 C 189.435 242.920,189.118 242.749,188.944 242.923 C 188.341 243.526,189.488 244.601,190.861 244.719 C 193.123 244.915,193.657 243.956,193.517 239.950 L 193.400 236.600 192.200 236.531 C 191.540 236.493,190.550 236.590,190.000 236.747 M196.700 236.687 C 195.631 236.848,195.600 236.926,195.600 239.427 C 195.600 243.218,196.588 242.741,196.892 238.803 C 197.122 235.832,199.600 236.972,199.600 240.049 C 199.600 241.122,199.780 242.000,200.000 242.000 C 200.814 242.000,200.473 237.267,199.626 236.814 C 198.843 236.395,198.673 236.388,196.700 236.687 M206.300 236.687 C 205.231 236.848,205.200 236.926,205.200 239.427 C 205.200 243.218,206.188 242.741,206.492 238.803 C 206.722 235.832,209.200 236.972,209.200 240.049 C 209.200 241.122,209.380 242.000,209.600 242.000 C 210.414 242.000,210.073 237.267,209.226 236.814 C 208.443 236.395,208.273 236.388,206.300 236.687 M213.200 236.747 C 210.408 237.545,212.019 242.611,214.831 241.876 C 215.827 241.615,216.299 242.558,215.596 243.405 C 214.924 244.215,213.327 244.156,212.850 243.303 C 212.635 242.920,212.318 242.749,212.144 242.923 C 211.541 243.526,212.688 244.601,214.061 244.719 C 216.323 244.915,216.857 243.956,216.717 239.950 L 216.600 236.600 215.400 236.531 C 214.740 236.493,213.750 236.590,213.200 236.747 M231.524 236.900 C 230.632 237.610,230.356 239.208,230.830 240.924 C 231.307 242.653,234.333 243.162,235.443 241.700 C 237.512 238.975,234.127 234.829,231.524 236.900 M239.000 236.684 C 236.149 237.428,237.370 242.270,240.322 241.926 C 241.239 241.819,241.400 241.950,241.400 242.800 C 241.400 243.947,239.967 244.403,238.968 243.574 C 238.193 242.930,237.745 243.410,238.392 244.190 C 239.026 244.955,241.347 244.987,241.967 244.240 C 242.265 243.881,242.391 242.405,242.316 240.140 L 242.200 236.600 241.000 236.537 C 240.340 236.503,239.440 236.569,239.000 236.684 M244.880 236.880 C 243.509 238.251,244.799 240.181,246.922 239.933 C 248.126 239.793,248.238 239.866,248.081 240.689 C 247.887 241.704,246.549 241.922,245.138 241.167 C 244.452 240.799,244.350 240.845,244.468 241.467 C 244.677 242.569,248.186 242.748,248.754 241.686 C 249.540 240.218,248.873 239.200,247.126 239.200 C 245.717 239.200,245.558 239.102,245.672 238.304 C 245.828 237.210,246.883 236.940,247.723 237.780 C 248.498 238.555,248.800 238.565,248.800 237.814 C 248.800 236.600,245.860 235.900,244.880 236.880 M185.856 237.078 C 185.460 237.473,185.554 242.000,185.957 242.000 C 186.499 242.000,186.800 240.925,186.800 238.991 C 186.800 237.326,186.406 236.528,185.856 237.078 M202.400 239.600 C 202.400 241.200,202.571 242.400,202.800 242.400 C 203.029 242.400,203.200 241.200,203.200 239.600 C 203.200 238.000,203.029 236.800,202.800 236.800 C 202.571 236.800,202.400 238.000,202.400 239.600 M163.126 238.101 C 163.304 239.038,162.189 239.415,160.934 238.843 C 160.082 238.454,160.000 238.282,160.425 237.770 C 161.093 236.966,162.954 237.194,163.126 238.101 M169.526 237.546 C 170.735 238.313,169.943 241.386,168.500 241.525 L 167.200 241.651 167.200 239.659 C 167.200 237.419,168.074 236.625,169.526 237.546 M192.861 238.874 C 192.566 241.980,189.600 242.315,189.600 239.242 C 189.600 237.564,189.969 237.275,192.001 237.359 C 192.907 237.396,192.988 237.539,192.861 238.874 M216.061 238.874 C 215.766 241.980,212.800 242.315,212.800 239.242 C 212.800 237.564,213.169 237.275,215.201 237.359 C 216.107 237.396,216.188 237.539,216.061 238.874 M224.720 237.680 C 225.978 238.938,225.159 241.410,223.400 241.661 C 222.203 241.832,222.200 241.828,222.324 240.016 C 222.519 237.146,223.363 236.323,224.720 237.680 M234.326 237.546 C 234.666 237.761,234.807 238.502,234.726 239.640 C 234.542 242.211,231.883 242.414,231.674 239.872 C 231.491 237.646,232.747 236.545,234.326 237.546 M241.800 239.479 C 241.800 240.647,241.740 241.423,241.668 241.204 C 241.583 240.949,241.282 240.942,240.830 241.184 C 239.072 242.125,237.373 238.637,239.100 237.633 C 240.897 236.588,241.800 237.206,241.800 239.479 M323.000 238.000 C 322.848 238.247,318.967 238.422,312.876 238.456 C 306.476 238.493,303.774 238.620,305.200 238.817 C 310.482 239.547,322.738 239.263,323.200 238.400 C 323.631 237.595,323.461 237.254,323.000 238.000 " stroke="none" fill="#04944c" fill-rule="evenodd"></path></g></svg>